<svg width="10" height="10" viewBox="0 0 10 10" fill="none" xmlns="http://www.w3.org/2000/svg">
<path d="M7.77282 1.19594L7.78043 1.19898C8.63224 1.5393 9.16666 2.40385 9.14992 3.33123V3.38906V3.40596L9.14878 3.42283C9.11779 3.88059 8.7519 4.27574 8.26904 4.28938L8.23691 4.29028L8.20494 4.28707C7.97415 4.26388 7.73889 4.15308 7.57612 3.94504C7.43031 3.75866 7.36202 3.52633 7.37493 3.29434L7.77282 1.19594ZM7.77282 1.19594L7.76512 1.19315M7.77282 1.19594L7.76512 1.19315M7.76512 1.19315C7.26924 1.01364 6.77175 1.30807 6.61645 1.7658L6.61635 1.76577M7.76512 1.19315L6.61635 1.76577M6.61635 1.76577L6.61326 1.7755M6.61635 1.76577L6.61326 1.7755M6.61326 1.7755C6.46987 2.22832 6.68437 2.75317 7.15897 2.93414M6.61326 1.7755L7.15897 2.93414M7.15897 2.93414C7.27025 2.97931 7.37493 3.11389 7.37493 3.29432L7.15897 2.93414ZM3.13162 0.500081C3.37873 0.508721 3.61735 0.55246 3.84946 0.631499L3.85906 0.641103L3.96979 0.678548C4.06377 0.710329 4.13411 0.740046 4.19444 0.774979L4.21278 0.785593L4.23194 0.794618L4.39851 0.873055C4.40089 0.87464 4.4038 0.876619 4.40729 0.879047C4.41905 0.887246 4.43282 0.897405 4.44991 0.910354L4.50514 0.952386C4.52288 0.965737 4.55052 0.986294 4.5798 1.0051L4.57977 1.00515L4.58617 1.00912C4.6006 1.01808 4.61274 1.02559 4.62306 1.03197C4.66215 1.05614 4.67493 1.06405 4.68595 1.07294L4.99945 1.32593L5.31335 1.07344C5.78302 0.695635 6.34652 0.495785 6.92121 0.500068V0.500081H6.92494C7.19122 0.500081 7.44904 0.539703 7.6884 0.624249L7.68839 0.624271L7.69303 0.625859C9.19525 1.13995 9.83723 2.92658 9.33284 4.62912C9.04042 5.50955 8.56469 6.3103 7.94566 6.96279C7.04825 7.87719 6.06791 8.69331 5.01561 9.40247C3.95708 8.69707 2.96863 7.87932 2.06053 6.95779C1.44482 6.30419 0.968486 5.5076 0.671354 4.62687C0.159594 2.92852 0.798317 1.13982 2.32333 0.614479L2.32336 0.614543L2.33108 0.611739C2.43275 0.574835 2.53703 0.548101 2.64133 0.531744H2.66498H2.70315L2.74088 0.525949C2.85514 0.508401 2.96923 0.500081 3.08498 0.500081H3.13162Z" fill="white" stroke="#EC1C24"/>
</svg>
