<svg width="14" height="14" viewBox="0 0 14 14" fill="none" xmlns="http://www.w3.org/2000/svg">
<path d="M4.07869 0.500106C4.42787 0.512051 4.76503 0.575535 5.09252 0.690808L5.10461 0.702899L5.21533 0.740343C5.34264 0.783393 5.44449 0.825809 5.53499 0.878202L5.55332 0.888816L5.57249 0.897841L5.79882 1.00442C5.81595 1.01526 5.84279 1.03424 5.88301 1.06471C5.88971 1.06978 5.8995 1.07726 5.91008 1.08534C5.92564 1.09722 5.94291 1.1104 5.95451 1.11913C5.97727 1.13626 6.00943 1.16011 6.04249 1.18134L6.04246 1.18139L6.04885 1.18536C6.06504 1.19541 6.07935 1.20425 6.0921 1.21212C6.14565 1.24519 6.17166 1.26125 6.19387 1.27918L6.50737 1.53217L6.82127 1.27967C7.45847 0.767112 8.22539 0.494248 9.00968 0.500092V0.500106H9.01341C9.37484 0.500106 9.72766 0.55388 10.0573 0.67033L10.0573 0.670352L10.062 0.67194C12.1207 1.37649 12.9633 3.80586 12.2914 6.0704C11.904 7.23798 11.2729 8.30078 10.4505 9.16739C9.25135 10.3894 7.93901 11.4774 6.52873 12.4194C5.11 11.4825 3.78677 10.3923 2.57335 9.1608C1.75559 8.29308 1.1238 7.23602 0.73016 6.06815C0.0479923 3.8078 0.887351 1.37635 2.97491 0.657227L2.97493 0.657291L2.98266 0.654486C3.12789 0.601771 3.27705 0.56393 3.42637 0.541317H3.4687H3.50688L3.54461 0.535523C3.70124 0.511467 3.85739 0.500106 4.01537 0.500106H4.07869ZM10.071 1.70061L10.0634 1.69757L10.0557 1.69478C9.49795 1.49289 8.9326 1.82239 8.75468 2.34679L8.75458 2.34676L8.7515 2.35649C8.58695 2.8761 8.83477 3.47415 9.37305 3.67864C9.58058 3.76194 9.7499 3.9965 9.7499 4.28785V4.29219C9.73401 4.56065 9.81266 4.82832 9.97975 5.0419C10.1636 5.27692 10.4306 5.40344 10.6945 5.42996L10.7265 5.43317L10.7586 5.43226C11.3033 5.41688 11.722 4.96951 11.7575 4.44492L11.7586 4.42806V4.41115V4.3345C11.7799 3.18474 11.1175 2.11872 10.071 1.70061Z" fill="#EC1C24" stroke="black"/>
</svg>
