<svg width="181" height="60" viewBox="0 0 181 60" fill="none" xmlns="http://www.w3.org/2000/svg">
<path d="M15.8221 46.48C13.9021 46.48 12.0941 46.096 10.3981 45.328C8.73413 44.56 7.27813 43.456 6.03013 42.016C4.78213 40.544 3.79013 38.752 3.05413 36.64C2.35013 34.528 1.99813 32.128 1.99813 29.44C1.99813 26.912 2.30213 24.592 2.91013 22.48C3.55013 20.368 4.47813 18.544 5.69413 17.008C6.94213 15.472 8.47813 14.288 10.3021 13.456C12.1261 12.592 14.2381 12.16 16.6381 12.16C18.5901 12.16 20.4461 12.512 22.2061 13.216C23.9661 13.92 25.5021 14.976 26.8141 16.384C28.1581 17.792 29.2141 19.552 29.9821 21.664C30.7501 23.776 31.1341 26.24 31.1341 29.056C31.1341 31.392 30.8141 33.616 30.1741 35.728C29.5661 37.84 28.6221 39.696 27.3421 41.296C26.0941 42.864 24.5101 44.128 22.5901 45.088C20.6701 46.016 18.4141 46.48 15.8221 46.48ZM15.9181 41.968C17.6781 41.968 19.2141 41.616 20.5261 40.912C21.8381 40.176 22.9261 39.216 23.7901 38.032C24.6541 36.848 25.2941 35.488 25.7101 33.952C26.1261 32.384 26.3341 30.784 26.3341 29.152C26.3341 27.168 26.0621 25.408 25.5181 23.872C25.0061 22.304 24.3021 20.992 23.4061 19.936C22.5101 18.88 21.4701 18.08 20.2861 17.536C19.1021 16.96 17.8381 16.672 16.4941 16.672C14.8941 16.672 13.4861 17.008 12.2701 17.68C11.0861 18.352 10.0781 19.264 9.24613 20.416C8.44613 21.568 7.83813 22.928 7.42213 24.496C7.00613 26.032 6.79813 27.68 6.79813 29.44C6.79813 31.328 7.03813 33.056 7.51813 34.624C7.99813 36.16 8.63813 37.472 9.43813 38.56C10.2701 39.648 11.2461 40.496 12.3661 41.104C13.4861 41.68 14.6701 41.968 15.9181 41.968ZM36.2473 43.216C36.2153 42.064 36.1833 40.72 36.1513 39.184C36.1193 37.648 36.0873 35.984 36.0553 34.192C36.0553 32.4 36.0393 30.512 36.0073 28.528C36.0073 26.544 36.0073 24.512 36.0073 22.432C36.0073 20.16 36.0233 18.208 36.0553 16.576C36.0873 14.944 36.1673 13.6 36.2953 12.544C36.4553 11.488 36.6953 10.72 37.0153 10.24C37.3353 9.728 37.7833 9.472 38.3593 9.472C38.9033 9.472 39.3833 9.648 39.7993 10C40.2153 10.352 40.4553 11.168 40.5193 12.448C40.6473 14.752 40.7273 17.152 40.7593 19.648C40.7913 22.112 40.8073 24.544 40.8073 26.944C40.8073 28.384 40.8073 29.776 40.8073 31.12C40.8073 32.432 40.7913 33.744 40.7593 35.056C40.7273 36.336 40.6953 37.648 40.6633 38.992C40.6313 40.336 40.5833 41.728 40.5193 43.168C40.4873 43.936 40.4073 44.528 40.2793 44.944C40.1833 45.36 40.0393 45.68 39.8473 45.904C39.6553 46.128 39.4313 46.256 39.1753 46.288C38.9513 46.352 38.6793 46.384 38.3593 46.384C37.7833 46.384 37.3033 46.192 36.9193 45.808C36.5353 45.392 36.3113 44.528 36.2473 43.216ZM57.7816 21.664C59.6056 21.664 61.2376 21.952 62.6776 22.528C64.1176 23.072 65.3336 23.856 66.3256 24.88C67.3496 25.904 68.1336 27.152 68.6776 28.624C69.2216 30.096 69.4936 31.744 69.4936 33.568C69.4936 35.584 69.1736 37.392 68.5336 38.992C67.9256 40.592 67.0616 41.952 65.9416 43.072C64.8536 44.192 63.5416 45.056 62.0056 45.664C60.5016 46.272 58.8536 46.576 57.0616 46.576C55.1096 46.576 53.3816 46.24 51.8776 45.568C50.4056 44.896 49.1576 43.984 48.1336 42.832C47.1416 41.68 46.3896 40.352 45.8776 38.848C45.3656 37.344 45.1096 35.76 45.1096 34.096C45.1096 32.272 45.3976 30.608 45.9736 29.104C46.5816 27.568 47.4296 26.256 48.5176 25.168C49.6376 24.048 50.9816 23.184 52.5496 22.576C54.1176 21.968 55.8616 21.664 57.7816 21.664ZM57.2536 42.16C58.5656 42.16 59.6856 41.936 60.6136 41.488C61.5416 41.008 62.2936 40.384 62.8696 39.616C63.4776 38.848 63.9096 37.984 64.1656 37.024C64.4536 36.032 64.5976 35.008 64.5976 33.952C64.5976 32.864 64.4536 31.856 64.1656 30.928C63.9096 29.968 63.4936 29.136 62.9176 28.432C62.3736 27.728 61.6536 27.184 60.7576 26.8C59.8936 26.384 58.8536 26.176 57.6376 26.176C56.3896 26.176 55.3016 26.384 54.3736 26.8C53.4456 27.216 52.6616 27.792 52.0216 28.528C51.4136 29.232 50.9496 30.08 50.6296 31.072C50.3096 32.064 50.1496 33.136 50.1496 34.288C50.1496 36.624 50.7416 38.528 51.9256 40C53.1416 41.44 54.9176 42.16 57.2536 42.16ZM60.9976 17.68C60.5176 17.68 59.9096 17.568 59.1736 17.344C58.4376 17.12 57.6536 16.832 56.8216 16.48C56.0216 16.128 55.2056 15.728 54.3736 15.28C53.5416 14.8 52.7896 14.32 52.1176 13.84C51.4456 13.36 50.9016 12.896 50.4856 12.448C50.0696 11.968 49.8616 11.536 49.8616 11.152C49.8616 10.544 50.0536 10.096 50.4376 9.808C50.8216 9.52 51.2856 9.376 51.8296 9.376C52.4376 9.376 53.3176 9.632 54.4696 10.144C55.6536 10.656 56.8216 11.28 57.9736 12.016C59.1576 12.752 60.1816 13.52 61.0456 14.32C61.9416 15.12 62.4216 15.824 62.4856 16.432C62.4856 16.912 62.3256 17.232 62.0056 17.392C61.6856 17.52 61.3496 17.616 60.9976 17.68ZM74.9394 26.512C74.5874 26.544 74.2354 26.576 73.8834 26.608C73.5634 26.608 73.2434 26.608 72.9234 26.608C71.8674 26.608 71.0834 26.448 70.5714 26.128C70.0274 25.776 69.7554 25.12 69.7554 24.16C69.7554 23.424 69.9634 22.848 70.3794 22.432C70.7634 21.984 71.5474 21.76 72.7314 21.76C73.4674 21.76 74.2194 21.808 74.9874 21.904V19.12C74.9874 17.84 75.1314 16.624 75.4194 15.472C75.7074 14.32 76.1554 13.312 76.7634 12.448C77.3714 11.552 78.1554 10.848 79.1154 10.336C80.1074 9.792 81.3074 9.52 82.7154 9.52C83.9954 9.52 84.8914 9.712 85.4034 10.096C85.9154 10.448 86.1714 11.04 86.1714 11.872C86.1714 12.704 85.8354 13.216 85.1634 13.408C84.4914 13.6 83.7234 13.696 82.8594 13.696C81.8034 13.696 81.0034 14.16 80.4594 15.088C79.9474 16.016 79.6914 17.152 79.6914 18.496V21.856C80.1074 21.76 80.5074 21.712 80.8914 21.712C81.3074 21.68 81.7394 21.664 82.1874 21.664C83.3714 21.664 84.2034 21.856 84.6834 22.24C85.1954 22.624 85.4514 23.232 85.4514 24.064C85.4514 25.12 85.1154 25.808 84.4434 26.128C83.7714 26.416 82.8754 26.56 81.7554 26.56C81.4674 26.56 81.1314 26.56 80.7474 26.56C80.3954 26.56 80.0434 26.528 79.6914 26.464V42.976C79.6914 43.744 79.6274 44.336 79.4994 44.752C79.3714 45.168 79.1954 45.488 78.9714 45.712C78.7474 45.936 78.4914 46.064 78.2034 46.096C77.9154 46.16 77.6114 46.192 77.2914 46.192C77.0034 46.192 76.7154 46.144 76.4274 46.048C76.1394 45.984 75.8834 45.84 75.6594 45.616C75.4674 45.36 75.2914 45.024 75.1314 44.608C75.0034 44.192 74.9394 43.664 74.9394 43.024V26.512ZM99.0316 21.664C100.856 21.664 102.488 21.952 103.928 22.528C105.368 23.072 106.584 23.856 107.576 24.88C108.6 25.904 109.384 27.152 109.928 28.624C110.472 30.096 110.744 31.744 110.744 33.568C110.744 35.584 110.424 37.392 109.784 38.992C109.176 40.592 108.312 41.952 107.192 43.072C106.104 44.192 104.792 45.056 103.256 45.664C101.752 46.272 100.104 46.576 98.3116 46.576C96.3596 46.576 94.6316 46.24 93.1276 45.568C91.6556 44.896 90.4076 43.984 89.3836 42.832C88.3916 41.68 87.6396 40.352 87.1276 38.848C86.6156 37.344 86.3596 35.76 86.3596 34.096C86.3596 32.272 86.6476 30.608 87.2236 29.104C87.8316 27.568 88.6796 26.256 89.7676 25.168C90.8876 24.048 92.2316 23.184 93.7996 22.576C95.3676 21.968 97.1116 21.664 99.0316 21.664ZM98.5036 42.16C99.8156 42.16 100.936 41.936 101.864 41.488C102.792 41.008 103.544 40.384 104.12 39.616C104.728 38.848 105.16 37.984 105.416 37.024C105.704 36.032 105.848 35.008 105.848 33.952C105.848 32.864 105.704 31.856 105.416 30.928C105.16 29.968 104.744 29.136 104.168 28.432C103.624 27.728 102.904 27.184 102.008 26.8C101.144 26.384 100.104 26.176 98.8876 26.176C97.6396 26.176 96.5516 26.384 95.6236 26.8C94.6956 27.216 93.9116 27.792 93.2716 28.528C92.6636 29.232 92.1996 30.08 91.8796 31.072C91.5596 32.064 91.3996 33.136 91.3996 34.288C91.3996 36.624 91.9916 38.528 93.1756 40C94.3916 41.44 96.1676 42.16 98.5036 42.16ZM102.248 17.68C101.768 17.68 101.16 17.568 100.424 17.344C99.6876 17.12 98.9036 16.832 98.0716 16.48C97.2716 16.128 96.4556 15.728 95.6236 15.28C94.7916 14.8 94.0396 14.32 93.3676 13.84C92.6956 13.36 92.1516 12.896 91.7356 12.448C91.3196 11.968 91.1116 11.536 91.1116 11.152C91.1116 10.544 91.3036 10.096 91.6876 9.808C92.0716 9.52 92.5356 9.376 93.0796 9.376C93.6876 9.376 94.5676 9.632 95.7196 10.144C96.9036 10.656 98.0716 11.28 99.2236 12.016C100.408 12.752 101.432 13.52 102.296 14.32C103.192 15.12 103.672 15.824 103.736 16.432C103.736 16.912 103.576 17.232 103.256 17.392C102.936 17.52 102.6 17.616 102.248 17.68ZM126.594 21.664C128.418 21.664 130.05 21.952 131.49 22.528C132.93 23.072 134.146 23.856 135.138 24.88C136.162 25.904 136.946 27.152 137.49 28.624C138.034 30.096 138.306 31.744 138.306 33.568C138.306 35.584 137.986 37.392 137.346 38.992C136.738 40.592 135.874 41.952 134.754 43.072C133.666 44.192 132.354 45.056 130.818 45.664C129.314 46.272 127.666 46.576 125.874 46.576C123.922 46.576 122.194 46.24 120.69 45.568C119.218 44.896 117.97 43.984 116.946 42.832C115.954 41.68 115.202 40.352 114.69 38.848C114.178 37.344 113.922 35.76 113.922 34.096C113.922 32.272 114.21 30.608 114.786 29.104C115.394 27.568 116.242 26.256 117.33 25.168C118.45 24.048 119.794 23.184 121.362 22.576C122.93 21.968 124.674 21.664 126.594 21.664ZM126.066 42.16C127.378 42.16 128.498 41.936 129.426 41.488C130.354 41.008 131.106 40.384 131.682 39.616C132.29 38.848 132.722 37.984 132.978 37.024C133.266 36.032 133.41 35.008 133.41 33.952C133.41 32.864 133.266 31.856 132.978 30.928C132.722 29.968 132.306 29.136 131.73 28.432C131.186 27.728 130.466 27.184 129.57 26.8C128.706 26.384 127.666 26.176 126.45 26.176C125.202 26.176 124.114 26.384 123.186 26.8C122.258 27.216 121.474 27.792 120.834 28.528C120.226 29.232 119.762 30.08 119.442 31.072C119.122 32.064 118.962 33.136 118.962 34.288C118.962 36.624 119.554 38.528 120.738 40C121.954 41.44 123.73 42.16 126.066 42.16ZM122.754 17.776C122.402 17.712 122.05 17.6 121.698 17.44C121.378 17.248 121.218 16.912 121.218 16.432C121.25 16.048 121.474 15.6 121.89 15.088C122.338 14.576 122.882 14.064 123.522 13.552C124.162 13.008 124.882 12.496 125.682 12.016C126.482 11.504 127.266 11.056 128.034 10.672C128.834 10.288 129.57 9.984 130.242 9.76C130.914 9.504 131.458 9.376 131.874 9.376C132.418 9.376 132.882 9.536 133.266 9.856C133.682 10.176 133.89 10.64 133.89 11.248C133.89 11.632 133.682 12.064 133.266 12.544C132.85 12.992 132.306 13.456 131.634 13.936C130.962 14.416 130.21 14.896 129.378 15.376C128.546 15.824 127.714 16.224 126.882 16.576C126.082 16.928 125.314 17.216 124.578 17.44C123.842 17.664 123.234 17.776 122.754 17.776ZM143.752 26.512C143.4 26.544 143.048 26.576 142.696 26.608C142.376 26.608 142.056 26.608 141.736 26.608C140.68 26.608 139.896 26.448 139.384 26.128C138.84 25.776 138.568 25.12 138.568 24.16C138.568 23.424 138.776 22.848 139.192 22.432C139.576 21.984 140.36 21.76 141.544 21.76C142.28 21.76 143.032 21.808 143.8 21.904V19.12C143.8 17.84 143.944 16.624 144.232 15.472C144.52 14.32 144.968 13.312 145.576 12.448C146.184 11.552 146.968 10.848 147.928 10.336C148.92 9.792 150.12 9.52 151.528 9.52C152.808 9.52 153.704 9.712 154.216 10.096C154.728 10.448 154.984 11.04 154.984 11.872C154.984 12.704 154.648 13.216 153.976 13.408C153.304 13.6 152.536 13.696 151.672 13.696C150.616 13.696 149.816 14.16 149.272 15.088C148.76 16.016 148.504 17.152 148.504 18.496V21.856C148.92 21.76 149.32 21.712 149.704 21.712C150.12 21.68 150.552 21.664 151 21.664C152.184 21.664 153.016 21.856 153.496 22.24C154.008 22.624 154.264 23.232 154.264 24.064C154.264 25.12 153.928 25.808 153.256 26.128C152.584 26.416 151.688 26.56 150.568 26.56C150.28 26.56 149.944 26.56 149.56 26.56C149.208 26.56 148.856 26.528 148.504 26.464V42.976C148.504 43.744 148.44 44.336 148.312 44.752C148.184 45.168 148.008 45.488 147.784 45.712C147.56 45.936 147.304 46.064 147.016 46.096C146.728 46.16 146.424 46.192 146.104 46.192C145.816 46.192 145.528 46.144 145.24 46.048C144.952 45.984 144.696 45.84 144.472 45.616C144.28 45.36 144.104 45.024 143.944 44.608C143.816 44.192 143.752 43.664 143.752 43.024V26.512ZM167.844 21.664C169.668 21.664 171.3 21.952 172.74 22.528C174.18 23.072 175.396 23.856 176.388 24.88C177.412 25.904 178.196 27.152 178.74 28.624C179.284 30.096 179.556 31.744 179.556 33.568C179.556 35.584 179.236 37.392 178.596 38.992C177.988 40.592 177.124 41.952 176.004 43.072C174.916 44.192 173.604 45.056 172.068 45.664C170.564 46.272 168.916 46.576 167.124 46.576C165.172 46.576 163.444 46.24 161.94 45.568C160.468 44.896 159.22 43.984 158.196 42.832C157.204 41.68 156.452 40.352 155.94 38.848C155.428 37.344 155.172 35.76 155.172 34.096C155.172 32.272 155.46 30.608 156.036 29.104C156.644 27.568 157.492 26.256 158.58 25.168C159.7 24.048 161.044 23.184 162.612 22.576C164.18 21.968 165.924 21.664 167.844 21.664ZM167.316 42.16C168.628 42.16 169.748 41.936 170.676 41.488C171.604 41.008 172.356 40.384 172.932 39.616C173.54 38.848 173.972 37.984 174.228 37.024C174.516 36.032 174.66 35.008 174.66 33.952C174.66 32.864 174.516 31.856 174.228 30.928C173.972 29.968 173.556 29.136 172.98 28.432C172.436 27.728 171.716 27.184 170.82 26.8C169.956 26.384 168.916 26.176 167.7 26.176C166.452 26.176 165.364 26.384 164.436 26.8C163.508 27.216 162.724 27.792 162.084 28.528C161.476 29.232 161.012 30.08 160.692 31.072C160.372 32.064 160.212 33.136 160.212 34.288C160.212 36.624 160.804 38.528 161.988 40C163.204 41.44 164.98 42.16 167.316 42.16ZM171.06 17.68C170.58 17.68 169.972 17.568 169.236 17.344C168.5 17.12 167.716 16.832 166.884 16.48C166.084 16.128 165.268 15.728 164.436 15.28C163.604 14.8 162.852 14.32 162.18 13.84C161.508 13.36 160.964 12.896 160.548 12.448C160.132 11.968 159.924 11.536 159.924 11.152C159.924 10.544 160.116 10.096 160.5 9.808C160.884 9.52 161.348 9.376 161.892 9.376C162.5 9.376 163.38 9.632 164.532 10.144C165.716 10.656 166.884 11.28 168.036 12.016C169.22 12.752 170.244 13.52 171.108 14.32C172.004 15.12 172.484 15.824 172.548 16.432C172.548 16.912 172.388 17.232 172.068 17.392C171.748 17.52 171.412 17.616 171.06 17.68Z" fill="black"/>
<path d="M16 33C16.6365 33 17.2469 32.7471 17.697 32.297C18.1471 31.8469 18.4 31.2365 18.4 30.6H13.6C13.6 31.2365 13.8528 31.8469 14.3029 32.297C14.753 32.7471 15.3635 33 16 33ZM14.8 28.8C14.8 28.9591 14.7368 29.1117 14.6242 29.2242C14.5117 29.3367 14.3591 29.4 14.2 29.4C14.0408 29.4 13.8882 29.3367 13.7757 29.2242C13.6632 29.1117 13.6 28.9591 13.6 28.8C13.6 28.6408 13.6632 28.4882 13.7757 28.3757C13.8882 28.2632 14.0408 28.2 14.2 28.2C14.3591 28.2 14.5117 28.2632 14.6242 28.3757C14.7368 28.4882 14.8 28.6408 14.8 28.8ZM17.8 29.4C17.9591 29.4 18.1117 29.3367 18.2242 29.2242C18.3368 29.1117 18.4 28.9591 18.4 28.8C18.4 28.6408 18.3368 28.4882 18.2242 28.3757C18.1117 28.2632 17.9591 28.2 17.8 28.2C17.6408 28.2 17.4882 28.2632 17.3757 28.3757C17.2632 28.4882 17.2 28.6408 17.2 28.8C17.2 28.9591 17.2632 29.1117 17.3757 29.2242C17.4882 29.3367 17.6408 29.4 17.8 29.4Z" fill="black"/>
<path fill-rule="evenodd" clip-rule="evenodd" d="M22 30C22 33.3138 19.3138 36 16 36C12.6862 36 10 33.3138 10 30C10 26.6862 12.6862 24 16 24C19.3138 24 22 26.6862 22 30ZM20.8 30C20.8 31.273 20.2943 32.4939 19.3941 33.3941C18.4939 34.2943 17.273 34.8 16 34.8C14.727 34.8 13.5061 34.2943 12.6059 33.3941C11.7057 32.4939 11.2 31.273 11.2 30C11.2 28.727 11.7057 27.5061 12.6059 26.6059C13.5061 25.7057 14.727 25.2 16 25.2C17.273 25.2 18.4939 25.7057 19.3941 26.6059C20.2943 27.5061 20.8 28.727 20.8 30Z" fill="black"/>
</svg>
